<!--?xml version="1.0" encoding="utf-8"?-->
<!-- Generator: Adobe Illustrator 18.1.1, SVG Export Plug-In . SVG Version: 6.00 Build 0)  -->

<svg version="1.1" id="_x32_" xmlns="http://www.w3.org/2000/svg" xmlns:xlink="http://www.w3.org/1999/xlink" x="0px" y="0px" viewBox="0 0 512 512" style="width: 256px; height: 256px; opacity: 1;" xml:space="preserve">
<style type="text/css">
	.st0{fill:#4B4B4B;}
</style>
<g>
	<path class="st0" d="M256,0C114.614,0,0,114.615,0,256c0,141.378,114.614,256,256,256c141.385,0,256-114.622,256-256
		C512,114.615,397.385,0,256,0z M312.983,111.148c15.07,0,27.283,12.205,27.283,27.296c0,15.057-12.213,27.279-27.283,27.279
		c-15.078,0-27.286-12.222-27.286-27.279C285.697,123.352,297.905,111.148,312.983,111.148z M185.053,111.148
		c15.074,0,27.283,12.205,27.283,27.296c0,15.057-12.213,27.279-27.283,27.279c-15.074,0-27.283-12.222-27.283-27.279
		C157.77,123.352,169.979,111.148,185.053,111.148z M236.299,297.934c0,6.623-5.356,11.976-11.959,11.976c-3.258,0,0,0-8.361,0
		l-4.549,78.205c0,7.032-5.701,12.737-12.738,12.737c-2.971,0-8.446,0-13.914,0c-5.471,0-10.942,0-13.91,0
		c-7.041,0-12.742-5.705-12.742-12.737l-4.554-78.205c-8.352,0-5.106,0-8.352,0c-6.606,0-11.967-5.353-11.967-11.976v-91.688
		c0-13.23,14.386-27.615,27.602-27.615h23.922h23.918c13.217,0,27.602,14.386,27.602,27.615V297.934z M377.139,333.524
		c-1.787,2.705-4.808,4.344-8.054,4.344h-29.803l-7.709,52.32c0,5.124-4.156,9.279-9.291,9.279c-1.853,0-16.75,0-18.61,0
		c-5.124,0-9.288-4.156-9.288-9.279l-7.708-52.32h-29.804c-3.246,0-6.266-1.639-8.053-4.344c-1.787-2.688-2.098-6.115-0.836-9.098
		l28.278-66.476l-9.414-47.451c-0.975-18.016,12.583-31.524,25.796-31.524h40.672c13.217,0,26.77,13.508,25.794,31.524l-9.41,47.451
		l28.275,66.476C379.242,327.41,378.93,330.836,377.139,333.524z" style="fill: rgb(75, 75, 75);"></path>
</g>
</svg>
