<!--?xml version="1.0" encoding="utf-8"?-->
<!-- Generator: Adobe Illustrator 18.1.1, SVG Export Plug-In . SVG Version: 6.00 Build 0)  -->

<svg version="1.1" id="_x32_" xmlns="http://www.w3.org/2000/svg" xmlns:xlink="http://www.w3.org/1999/xlink" x="0px" y="0px" viewBox="0 0 512 512" style="width: 256px; height: 256px; opacity: 1;" xml:space="preserve">
<style type="text/css">
	.st0{fill:#4B4B4B;}
</style>
<g>
	<path class="st0" d="M256,0C114.609,0,0,114.609,0,256s114.609,256,256,256c141.375,0,256-114.609,256-256S397.375,0,256,0z
		 M256,417.781l-29.836-29.836c16.477-16.476,43.18-16.476,59.649,0L256,417.781z M315.656,358.109
		c-32.914-32.906-86.421-32.906-119.328,0l-29.836-29.828c49.336-49.344,129.657-49.344,179,0L315.656,358.109z M375.328,298.438
		c-65.796-65.774-172.859-65.797-238.672,0l-29.82-29.812c82.25-82.25,216.078-82.25,298.305,0L375.328,298.438z M434.976,238.781
		c-98.68-98.672-259.289-98.672-357.976,0l-29.813-29.812c115.133-115.172,302.508-115.133,417.625,0L434.976,238.781z" style="fill: rgb(75, 75, 75);"></path>
</g>
</svg>
